<svg width="106" height="104" viewBox="0 0 106 104" fill="none" xmlns="http://www.w3.org/2000/svg">
<path d="M9.64339 93.6037L0 0H106L96.3437 93.5889L52.9356 104L9.64339 93.6037Z" fill="#1572B6"/>
<path d="M53 96.044L88.0786 87.6311L96.3308 7.65514H53V96.044Z" fill="#33A9DC"/>
<path d="M53 41.5666H70.5608L71.7715 29.8109H53V18.33H86.2753L82.6987 53.0474H53V41.5666Z" fill="white"/>
<path d="M53.0816 71.3811L53.0215 71.396L38.2429 67.9417L37.2984 58.786H23.9754L25.8345 76.8114L53.0172 83.3411L53.0816 83.3263V71.3811Z" fill="#EBEBEB"/>
<path d="M69.4315 52.5609L67.8343 67.9343L53.0343 71.3886V83.3337L80.2385 76.8114L82.7459 52.5609H69.4315Z" fill="white"/>
<path d="M53.0472 18.33V29.8109H20.9913L19.802 18.33H53.0472ZM53 41.5666V53.0474H38.4061L37.2211 41.5666H53Z" fill="#EBEBEB"/>
</svg>
