<svg width="25" height="25" viewBox="0 0 25 25" fill="none" xmlns="http://www.w3.org/2000/svg">
<path d="M12.5001 0C5.59736 0 0 5.7307 0 12.8001C0 18.4555 3.58164 23.2536 8.54834 24.9461C9.17305 25.0646 9.40244 24.6684 9.40244 24.3303C9.40244 24.0251 9.39072 23.0168 9.38545 21.9473C5.90791 22.7215 5.17412 20.437 5.17412 20.437C4.60547 18.9575 3.78613 18.564 3.78613 18.564C2.65205 17.7696 3.87168 17.786 3.87168 17.786C5.12686 17.8762 5.78779 19.105 5.78779 19.105C6.90273 21.0618 8.71211 20.4961 9.42539 20.169C9.5376 19.3418 9.86152 18.777 10.219 18.4574C7.44258 18.1338 4.52393 17.0362 4.52393 12.1316C4.52393 10.7341 5.01221 9.5922 5.81182 8.6958C5.68203 8.3734 5.2542 7.0716 5.93291 5.3084C5.93291 5.3084 6.98262 4.9644 9.37139 6.6205C10.3685 6.3369 11.4378 6.1947 12.5001 6.1898C13.5624 6.1947 14.6326 6.3368 15.6315 6.6205C18.0174 4.9645 19.0656 5.3085 19.0656 5.3085C19.746 7.0715 19.318 8.3735 19.1882 8.6958C19.9896 9.5922 20.4746 10.7341 20.4746 12.1316C20.4746 17.0479 17.5504 18.1304 14.7669 18.4473C15.2152 18.8445 15.6147 19.6235 15.6147 20.8177C15.6147 22.5303 15.6003 23.9087 15.6003 24.3303C15.6003 24.671 15.8253 25.0701 16.4589 24.9443C21.4229 23.25 25 18.4537 25 12.8002C25 5.7307 19.4034 0 12.5001 0ZM4.68174 18.234C4.6542 18.2976 4.55645 18.3167 4.46748 18.273C4.37676 18.2313 4.32588 18.1446 4.35518 18.0808C4.38213 18.0153 4.48008 17.997 4.57051 18.0409C4.66133 18.0827 4.71309 18.1702 4.68174 18.234ZM5.29658 18.7958C5.23701 18.8524 5.12041 18.8261 5.04131 18.7367C4.95957 18.6475 4.94424 18.5281 5.00469 18.4707C5.06621 18.4141 5.1792 18.4406 5.26113 18.5298C5.34297 18.6201 5.35879 18.7386 5.29658 18.7958ZM5.71846 19.5146C5.6418 19.5691 5.5166 19.518 5.43916 19.4042C5.3626 19.2904 5.3626 19.1539 5.44082 19.0992C5.51846 19.0445 5.6418 19.0937 5.72021 19.2067C5.79658 19.3224 5.79658 19.4589 5.71836 19.5147L5.71846 19.5146ZM6.43174 20.3471C6.36328 20.4245 6.21729 20.4037 6.11045 20.2981C6.00117 20.1949 5.9708 20.0485 6.03955 19.9711C6.10889 19.8935 6.25566 19.9153 6.36328 20.0201C6.47168 20.1231 6.50488 20.2706 6.43174 20.3471ZM7.35381 20.6281C7.32354 20.7284 7.18291 20.774 7.04141 20.7314C6.9 20.6875 6.80752 20.5701 6.83604 20.4688C6.86543 20.3678 7.00664 20.3204 7.14922 20.366C7.29043 20.4096 7.3832 20.5261 7.35381 20.6281ZM8.40303 20.7474C8.40654 20.8529 8.28652 20.9404 8.13789 20.9424C7.98848 20.9458 7.86748 20.8604 7.86582 20.7564C7.86582 20.6499 7.9832 20.5632 8.13271 20.5606C8.28135 20.5576 8.40303 20.6424 8.40303 20.7474ZM9.43379 20.7069C9.45156 20.8099 9.34834 20.9157 9.20068 20.9439C9.05566 20.971 8.92129 20.9074 8.90283 20.8053C8.88486 20.6997 8.99004 20.5939 9.13486 20.5666C9.28271 20.5403 9.41494 20.6022 9.43379 20.7069Z" fill="#161614"/>
</svg>
