<svg width="106" height="104" viewBox="0 0 106 104" fill="none" xmlns="http://www.w3.org/2000/svg">
<path d="M9.6469 93.6037L0 0H106L96.3402 93.5889L52.9356 104L9.6469 93.6037Z" fill="#E44F26"/>
<path d="M53 96.044L88.0757 87.6311L96.3273 7.65514H53V96.044Z" fill="#F1662A"/>
<path d="M53 42.3689H35.4407L34.23 30.6131H53V19.1323H19.7274L23.3037 53.8497H53V42.3689ZM53 72.1834L52.9399 72.1983L38.1626 68.7477L37.2181 59.592H23.8962L25.7551 77.6137L52.9399 84.1434L53 84.1286V72.1834Z" fill="#EBEBEB"/>
<path d="M52.9528 42.3689V53.8497H69.2928L67.7559 68.7403L52.9528 72.1946V84.1397L80.159 77.6137L80.3565 75.6749L83.4734 45.4517L83.7997 42.3689H52.9528ZM52.9528 19.1323V30.6131H85.0061L86.1953 19.1323H52.9528Z" fill="white"/>
</svg>
