<svg width="106" height="104" viewBox="0 0 106 104" fill="none" xmlns="http://www.w3.org/2000/svg">
<path d="M0 0H106V104H0V0Z" fill="#F5DE19"/>
<path d="M71.2055 81.25C72.1087 83.0499 73.5118 84.5628 75.2533 85.6143C76.9948 86.6657 79.0037 87.213 81.0484 87.1929C85.1748 87.1929 87.8134 85.1686 87.8134 82.3643C87.8134 79.0214 85.1029 77.8254 80.56 75.8754L78.069 74.828C70.8761 71.8231 66.1061 68.0606 66.1061 60.1046C66.1061 52.7763 71.7847 47.1937 80.6925 47.1937C83.5761 46.9894 86.4572 47.6226 88.9764 49.0143C91.4956 50.406 93.5414 52.4947 94.8586 55.0197L87.0714 59.904C86.5642 58.652 85.6811 57.5808 84.5391 56.8326C83.3972 56.0843 82.0504 55.6943 80.6774 55.7143C80.0783 55.6554 79.4733 55.7197 78.901 55.9029C78.3287 56.0861 77.8015 56.3843 77.3531 56.7785C76.9047 57.1727 76.5449 57.6541 76.2966 58.1923C76.0484 58.7304 75.9171 59.3133 75.9111 59.904C75.9111 62.8346 77.7624 64.0231 82.0364 65.8469L84.5274 66.8943C92.9923 70.4563 97.7774 74.0851 97.7774 82.2454C97.7774 91.0446 90.7322 95.8657 81.2717 95.8657C77.5856 96.0961 73.9102 95.275 70.6892 93.5015C67.4682 91.7279 64.8391 89.0777 63.1192 85.8706L71.2055 81.25ZM36.0173 82.0969C37.5808 84.8194 39.0042 87.1223 42.4265 87.1223C45.6974 87.1223 47.7644 85.8669 47.7644 80.9826V47.7509H57.7246V81.1126C57.7246 91.2303 51.6674 95.836 42.8505 95.836C39.7339 96.0031 36.6387 95.2411 33.9718 93.6501C31.3049 92.059 29.1911 89.7135 27.9083 86.9217L36.0173 82.0969Z" fill="black"/>
</svg>
