<svg width="125" height="104" viewBox="0 0 125 104" fill="none" xmlns="http://www.w3.org/2000/svg">
<path d="M61.7773 104C61.3672 104 60.957 103.841 60.5859 103.575L56.8359 100.551C56.2695 100.126 56.543 99.9672 56.7383 99.8876C57.4805 99.5427 57.6367 99.4631 58.4375 98.8263C58.5156 98.7733 58.6328 98.7998 58.7109 98.8529L61.6016 101.188C61.6992 101.267 61.8555 101.267 61.9531 101.188L73.2422 92.3261C73.3398 92.2465 73.418 92.0873 73.418 91.9016V74.205C73.418 74.0193 73.3594 73.8601 73.2422 73.7805L61.9531 64.9455C61.8555 64.8659 61.7187 64.8659 61.6016 64.9455L50.3125 73.7805C50.1953 73.8601 50.1367 74.0458 50.1367 74.205V91.9016C50.1367 92.0608 50.2148 92.22 50.3125 92.2996L53.3984 94.7139C55.0781 95.8548 56.1133 94.5017 56.1133 93.1751V75.6908C56.1133 75.452 56.25 75.2398 56.4453 75.2398H57.8711C58.0469 75.2398 58.2031 75.4255 58.2031 75.6908V93.1751C58.2031 96.2262 56.9922 97.9508 54.8633 97.9508C54.2187 97.9508 53.6914 97.9508 52.2656 96.9957L49.2969 94.6874C48.5742 94.1037 48.1055 93.0425 48.1055 91.9016V74.205C48.1055 73.0642 48.5547 71.9764 49.2969 71.4192L60.5859 62.5576C61.3086 62.0005 62.2461 62.0005 62.9492 62.5576L74.2383 71.4192C74.9609 72.0029 75.4297 73.0642 75.4297 74.205V91.9016C75.4297 93.0425 74.9805 94.1302 74.2383 94.6874L62.9492 103.549C62.6172 103.841 62.207 104 61.7773 104ZM70.8984 86.5422C70.8984 83.2258 69.2578 82.3502 65.7812 81.7135C62.2656 81.0767 61.9141 80.7583 61.9141 79.644C61.9141 78.7154 62.207 77.4949 64.8047 77.4949C67.1289 77.4949 67.9883 78.1848 68.3398 80.3073C68.3789 80.5195 68.4961 80.6522 68.6523 80.6522H70.1172C70.2148 80.6522 70.293 80.5991 70.3516 80.5195C70.4102 80.4134 70.4492 80.3073 70.4297 80.1746C70.1953 76.5133 68.418 74.8152 64.8047 74.8152C61.582 74.8152 59.668 76.6725 59.668 79.7501C59.668 83.1196 61.582 84.0217 64.668 84.4462C68.3594 84.9503 68.6523 85.6667 68.6523 86.6483C68.6523 88.3729 67.6367 89.0892 65.2539 89.0892C62.2656 89.0892 61.6016 88.081 61.3867 86.0646C61.3672 85.8524 61.2305 85.6932 61.0547 85.6932H59.5898C59.4141 85.6932 59.2578 85.8789 59.2578 86.1442C59.2578 88.7178 60.293 91.7955 65.2344 91.7955C68.8477 91.7955 70.8984 89.8852 70.8984 86.5422ZM81.543 73.2499C81.543 74.8683 80.5664 76.1949 79.375 76.1949C78.1836 76.1949 77.207 74.8683 77.207 73.2499C77.207 71.5784 78.2227 70.3049 79.375 70.3049C80.5469 70.2783 81.543 71.5784 81.543 73.2499ZM81.1914 73.2499C81.1914 71.8702 80.3711 70.7824 79.3555 70.7824C78.3594 70.7824 77.5391 71.8702 77.5391 73.2499C77.5391 74.6295 78.3594 75.7439 79.3555 75.7439C80.3711 75.7173 81.1914 74.603 81.1914 73.2499ZM80.3125 74.8948H79.8047C79.7852 74.7356 79.707 73.8866 79.707 73.8601C79.668 73.6744 79.6289 73.5683 79.4531 73.5683H79.0234V74.8948H78.5547V71.5784H79.3945C79.6875 71.5784 80.2539 71.5784 80.2539 72.4539C80.2539 73.0642 79.9609 73.1968 79.7852 73.2764C80.1172 73.3029 80.1367 73.5948 80.1953 74.0193C80.2148 74.2846 80.2539 74.7356 80.3125 74.8948ZM79.7656 72.5601C79.7656 72.109 79.5312 72.109 79.4141 72.109H79.0234V73.0376H79.3945C79.707 73.0376 79.7656 72.7458 79.7656 72.5601ZM26.8164 34.7525C26.8164 34.0362 26.543 33.3994 26.0938 33.0545L14.1211 23.6889C13.9258 23.5297 13.6914 23.4501 13.457 23.4235H13.3398C13.1055 23.4235 12.8906 23.5297 12.6758 23.6889L0.722656 33.0545C0.273437 33.3994 0 34.0627 0 34.7525L0.0195312 59.9576C0.0195312 60.3025 0.15625 60.6208 0.371094 60.8066C0.585937 60.9923 0.859375 60.9923 1.09375 60.8066L8.20312 55.2615C8.65234 54.89 8.92578 54.2533 8.92578 53.5634V41.7834C8.92578 41.0936 9.19922 40.4303 9.64844 40.0854L12.6758 37.7241C12.9102 37.5384 13.1445 37.4588 13.3984 37.4588C13.6523 37.4588 13.9062 37.5384 14.1211 37.7241L17.1484 40.0854C17.5977 40.4303 17.8711 41.0936 17.8711 41.7834V53.5634C17.8711 54.2533 18.1445 54.9165 18.5937 55.2615L25.7031 60.8066C25.918 60.9923 26.2109 60.9923 26.4258 60.8066C26.6406 60.6474 26.7773 60.3025 26.7773 59.9576L26.8164 34.7525ZM92.2852 7.23927V54.041C92.2852 54.7308 92.0117 55.3941 91.5625 55.739L79.5898 65.1312C79.1406 65.4761 78.5937 65.4761 78.1445 65.1312L66.1719 55.739C65.7227 55.3941 65.4492 54.7308 65.4492 54.041V35.2566C65.4492 34.5668 65.7227 33.9035 66.1719 33.5586L78.1445 24.1664C78.5937 23.8215 79.1406 23.8215 79.5898 24.1664L82.5781 26.5012C82.9102 26.7665 83.3398 26.4216 83.3398 25.9175V0.977816C83.3398 0.234931 83.9258 -0.242638 84.4141 0.128805L91.543 5.54125C91.9922 5.85963 92.2852 6.52292 92.2852 7.23927ZM83.3008 41.4385C83.3008 41.2528 83.2227 41.0936 83.125 41.014L79.0234 37.7771C78.9062 37.6975 78.7695 37.6975 78.6523 37.7771L74.5508 41.014C74.4336 41.0936 74.375 41.2528 74.375 41.4385V47.8857C74.375 48.0714 74.4531 48.2306 74.5508 48.3102L78.6523 51.5205C78.7695 51.6001 78.9062 51.6001 79.0039 51.5205L83.1055 48.3102C83.2227 48.2306 83.2812 48.0714 83.2812 47.8857V41.4385H83.3008ZM124.277 41.2528C124.727 40.9079 125 40.2446 125 39.5548V35.0179C125 34.328 124.727 33.6647 124.277 33.3198L112.383 23.9276C111.934 23.5827 111.387 23.5827 110.937 23.9276L98.9648 33.3198C98.5156 33.6647 98.2422 34.328 98.2422 35.0179V53.8022C98.2422 54.5186 98.5156 55.1553 98.9648 55.5002L110.859 64.7067C111.289 65.0516 111.836 65.0516 112.285 64.7067L119.473 59.2677C119.961 58.8963 119.961 57.9412 119.473 57.5697L107.422 48.1775C107.187 47.9918 107.051 47.6734 107.051 47.3285V41.4385C107.051 41.0936 107.187 40.7752 107.422 40.5895L111.172 37.6445C111.387 37.4588 111.68 37.4588 111.895 37.6445L115.645 40.5895C115.859 40.7752 116.016 41.0936 116.016 41.4385V46.055C116.016 46.7979 116.621 47.2755 117.109 46.904L124.277 41.2528ZM109.18 42.1814C109.102 42.261 109.043 42.3671 109.043 42.4998V46.1081C109.043 46.2407 109.102 46.3734 109.18 46.4264L111.484 48.2306C111.562 48.3102 111.68 48.3102 111.758 48.2306L114.062 46.4264C114.141 46.3468 114.199 46.2407 114.199 46.1081V42.4998C114.199 42.3671 114.141 42.2344 114.062 42.1814L111.758 40.3772C111.68 40.2976 111.562 40.2976 111.484 40.3772L109.18 42.1814ZM59.5312 53.7226V35.0444C59.5312 34.3546 59.2187 33.6913 58.7695 33.3464L46.8359 24.0072C46.4258 23.6889 45.8594 23.6358 45.3906 24.0072L33.457 33.3464C33.0078 33.6913 32.6953 34.328 32.6953 35.0444V53.7226C32.6953 54.4655 33.0664 55.1023 33.4766 55.4206L45.4297 64.7598C45.8984 65.1312 46.4453 65.1047 46.875 64.7598L58.7891 55.4206C59.1406 55.1553 59.3945 54.7043 59.4922 54.1737C59.5117 54.041 59.5312 53.8818 59.5312 53.7226ZM45.0195 20.5847L44.8633 20.7173H45.0781L45.0195 20.5847ZM59.9023 55.1288L59.8242 54.9431V55.1819L59.9023 55.1288Z" fill="#699BF7"/>
</svg>
