<svg width="106" height="104" viewBox="0 0 106 104" fill="none" xmlns="http://www.w3.org/2000/svg">
<path d="M81.1562 0H24.8438C11.1229 0 0 10.9131 0 24.375V79.625C0 93.0869 11.1229 104 24.8438 104H81.1562C94.8771 104 106 93.0869 106 79.625V24.375C106 10.9131 94.8771 0 81.1562 0Z" fill="#242938"/>
<path d="M53.0004 59.6988C57.2669 59.6988 60.7251 56.3054 60.7251 52.1198C60.7251 47.9342 57.2669 44.5408 53.0004 44.5408C48.7343 44.5408 45.2756 47.9342 45.2756 52.1198C45.2756 56.3054 48.7343 59.6988 53.0004 59.6988Z" fill="#00D8FF"/>
<path d="M53.0008 36.71C63.3723 36.71 73.0071 38.17 80.2718 40.6242C89.0247 43.5805 94.4062 48.0618 94.4062 52.1198C94.4062 56.3485 88.703 61.1093 79.3033 64.1647C72.1972 66.4747 62.846 67.6804 53.0008 67.6804C42.9068 67.6804 33.3482 66.5486 26.1617 64.1391C17.0697 61.0902 11.5938 56.2681 11.5938 52.1198C11.5938 48.0947 16.7323 43.6479 25.3622 40.6961C32.6538 38.2017 42.5263 36.71 52.9992 36.71H53.0008Z" stroke="#00D8FF" stroke-width="4.17703"/>
<path d="M39.328 44.4592C44.5096 35.6444 50.6117 28.1848 56.4077 23.2367C63.3905 17.2742 70.0362 14.939 73.6186 16.9658C77.3522 19.0783 78.7066 26.3047 76.7088 35.8199C75.1995 43.0133 71.5914 51.5633 66.6727 59.9312C61.6299 68.5104 55.8558 76.0691 50.1388 80.9717C42.9047 87.176 35.9108 89.4213 32.2484 87.349C28.6945 85.3397 27.3356 78.7499 29.0407 69.9404C30.4812 62.4967 34.0964 53.3605 39.3264 44.4592H39.328Z" stroke="#00D8FF" stroke-width="4.17703"/>
<path d="M39.3409 59.9536C34.1448 51.1485 30.6071 42.2345 29.1305 34.8367C27.3529 25.9232 28.6096 19.1084 32.1892 17.0755C35.9195 14.9565 42.9764 17.4143 50.3806 23.8647C55.9787 28.7414 61.7272 36.077 66.6599 44.4368C71.7173 53.0079 75.5076 61.6915 76.9821 68.9991C78.8478 78.247 77.3377 85.3129 73.6787 87.3909C70.1285 89.4075 63.6315 87.2726 56.7038 81.4235C50.8506 76.4818 44.5883 68.8464 39.3409 59.9536Z" stroke="#00D8FF" stroke-width="4.17703"/>
</svg>
