<svg width="106" height="104" viewBox="0 0 106 104" fill="none" xmlns="http://www.w3.org/2000/svg">
<path d="M81.1562 0H24.8438C11.1229 0 0 10.9131 0 24.375V79.625C0 93.0869 11.1229 104 24.8438 104H81.1562C94.8771 104 106 93.0869 106 79.625V24.375C106 10.9131 94.8771 0 81.1562 0Z" fill="#242938"/>
<mask id="mask0_45_30" style="mask-type:luminance" maskUnits="userSpaceOnUse" x="11" y="21" width="84" height="62">
<path d="M11.5938 21.5312H94.4062V82.4318H11.5938V21.5312Z" fill="white"/>
</mask>
<g mask="url(#mask0_45_30)">
<path d="M82.8569 56.5349C79.9692 56.5495 77.46 57.232 75.3587 58.2404C74.5877 56.7425 73.8167 55.4076 73.6805 54.4285C73.5293 53.2865 73.348 52.5894 73.5293 51.2248C73.7107 49.8602 74.5272 47.9175 74.5119 47.7693C74.497 47.6206 74.3305 46.9239 72.6677 46.9088C71.0048 46.8942 69.5688 47.2204 69.4024 47.6506C69.2359 48.0805 68.9187 49.0595 68.7072 50.0682C68.4198 51.5515 65.381 56.8465 63.6427 59.62C63.0834 58.5373 62.5997 57.5879 62.4937 56.8315C62.3426 55.6895 62.1612 54.9924 62.3426 53.6278C62.524 52.2632 63.3405 50.3201 63.3252 50.1718C63.3103 50.0236 63.1438 49.3264 61.4809 49.3118C59.8181 49.2968 58.3817 49.623 58.2156 50.0532C58.0492 50.4834 57.8678 51.4921 57.52 52.4708C57.1726 53.4499 53.1363 62.2899 52.078 64.5738C51.6504 65.4981 51.2018 66.4129 50.7327 67.3176C50.7327 67.3176 50.7174 67.3623 50.6722 67.4362C50.5247 67.7199 50.3734 68.0018 50.2184 68.2816V68.2967C49.9919 68.6972 49.7497 69.0677 49.6288 69.0677C49.5381 69.0677 49.3721 68.0001 49.659 66.5466C50.264 63.4761 51.6999 58.7002 51.685 58.5373C51.685 58.4484 51.9571 57.6176 50.7476 57.1874C49.5683 56.7571 49.1452 57.4693 49.0392 57.4693C48.9336 57.4693 48.8578 57.7216 48.8578 57.7216C48.8578 57.7216 50.1733 52.3522 46.3486 52.3522C43.9599 52.3522 40.6643 54.918 39.0321 57.232C37.176 58.2229 35.3214 59.2166 33.4684 60.2131C32.5769 60.7026 31.6548 61.1922 30.7927 61.6521C30.7322 61.5927 30.6718 61.5184 30.6113 61.4591C25.9854 56.6089 17.4292 53.183 17.7919 46.6716C17.9282 44.2983 18.7596 38.0688 34.2244 30.5045C46.9531 24.3494 57.0819 26.0548 58.8355 29.837C61.3447 35.2361 53.4084 45.2623 40.2565 46.7159C35.2372 47.2647 32.6071 45.3663 31.9421 44.6546C31.2465 43.9127 31.1405 43.8685 30.8834 44.0167C30.4602 44.239 30.7322 44.9064 30.8834 45.292C31.2767 46.3007 32.8941 48.0805 35.6302 48.9555C38.0491 49.727 43.9296 50.1572 51.0499 47.4577C59.0168 44.4319 65.2452 36.0217 63.4158 28.977C61.5869 21.8278 49.493 19.4695 38.0491 23.4593C31.2461 25.8326 23.8691 29.5701 18.5629 34.4349C12.2588 40.2199 11.2614 45.2477 11.6696 47.3537C13.1358 54.8291 23.6422 59.6939 27.845 63.2982C27.6334 63.4168 27.4367 63.5208 27.2707 63.6098C25.1693 64.6331 17.1572 68.7415 15.1614 73.0876C12.894 78.0117 15.5245 81.5416 17.2628 82.0161C22.6597 83.4847 28.2077 80.8445 31.186 76.4838C34.164 72.1231 33.8013 66.4576 32.4253 63.862C32.4106 63.8292 32.3901 63.7991 32.3649 63.7731C32.9094 63.4615 33.4684 63.1353 34.0128 62.8237C35.0133 62.2436 36.0263 61.6848 37.0512 61.1475C36.5374 62.5271 36.1593 64.1732 35.978 66.5466C35.7515 69.335 36.9154 72.9539 38.4421 74.3778C39.1224 75.0006 39.9236 75.0156 40.4379 75.0156C42.2216 75.0156 43.0228 73.5621 43.9147 71.8416C45.0029 69.7352 45.9859 67.288 45.9859 67.288C45.9859 67.288 44.7611 73.9033 48.0868 73.9033C49.2963 73.9033 50.5207 72.3608 51.0652 71.5747V71.5893C51.0652 71.5893 51.0954 71.545 51.1559 71.441C51.2768 71.2481 51.3521 71.1295 51.3521 71.1295V71.0998C51.8362 70.2694 52.9243 68.3856 54.5421 65.2559C56.6281 61.2218 58.6388 56.1791 58.6388 56.1791C58.6388 56.1791 58.8202 57.41 59.44 59.4567C59.8027 60.6584 60.5588 61.9783 61.1633 63.2539C60.6797 63.9214 60.3775 64.2919 60.3775 64.2919L60.3924 64.3069C59.9994 64.8111 59.5762 65.3599 59.1075 65.8937C57.4596 67.8222 55.4944 70.0322 55.2224 70.67C54.9048 71.4264 54.9806 71.9749 55.5851 72.4201C56.0236 72.7463 56.8095 72.7906 57.6107 72.7463C59.0922 72.6423 60.1356 72.2865 60.6495 72.0638C61.4507 71.7823 62.3881 71.3521 63.2647 70.7143C64.8825 69.5426 65.865 67.8665 65.7743 65.6565C65.7288 64.4401 65.3205 63.2242 64.822 62.0819C64.9731 61.8743 65.1089 61.6667 65.2601 61.4591C67.8153 57.7955 69.7953 53.7761 69.7953 53.7761C69.7953 53.7761 69.9767 55.007 70.5965 57.0541C70.8988 58.0921 71.5186 59.2194 72.0631 60.3171C69.6595 62.2306 68.178 64.4552 67.6488 65.9087C66.6965 68.6083 67.4372 69.8242 68.843 70.1061C69.4781 70.2398 70.3849 69.9432 71.0503 69.6613C71.8967 69.3944 72.8946 68.9345 73.8469 68.252C75.4642 67.0804 77.0215 65.4489 76.9308 63.2389C76.8853 62.2305 76.6133 61.2365 76.2352 60.2724C78.2761 59.4421 80.9067 58.9822 84.2626 59.3677C91.4586 60.1985 92.8797 64.6035 92.6073 66.4576C92.3352 68.3113 90.8235 69.32 90.3245 69.6316C89.826 69.9432 89.6595 70.0468 89.7051 70.2694C89.7655 70.5956 90.0074 70.5806 90.4305 70.5213C91.0201 70.4177 94.2097 69.0235 94.3459 65.6122C94.5728 61.2515 90.3398 56.4902 82.8569 56.5349ZM27.346 74.897C24.9577 77.4479 21.632 78.4123 20.1956 77.5965C18.6536 76.7211 19.2581 72.9539 22.1914 70.2544C23.9747 68.6083 26.2728 67.0804 27.7994 66.146C28.1472 65.9384 28.6611 65.6418 29.2809 65.2709C29.3869 65.2116 29.4474 65.182 29.4474 65.182L29.8101 64.9593C30.8834 68.8159 29.8552 72.2125 27.346 74.897ZM44.7309 63.2982C43.8994 65.286 42.1612 70.373 41.1028 70.0915C40.196 69.8538 39.6366 65.9977 40.9215 62.1859C41.5716 60.2724 42.9471 57.9885 43.7483 57.0984C45.0484 55.6745 46.4844 55.2 46.8322 55.7785C47.2707 56.5349 45.2451 62.0522 44.7309 63.2982ZM59.0773 70.0322C58.7295 70.2101 58.397 70.3287 58.2459 70.2398C58.1399 70.1805 58.397 69.9432 58.397 69.9432C58.397 69.9432 60.1961 68.0444 60.9066 67.1844C61.3145 66.6798 61.7985 66.0867 62.3124 65.4192V65.6122C62.3124 67.8815 60.0752 69.409 59.0773 70.0322ZM70.1431 67.5549C69.886 67.3769 69.9315 66.7838 70.7932 64.9297C71.1257 64.2029 71.912 62.987 73.2573 61.815C73.4084 62.2899 73.5144 62.7493 73.4991 63.1795C73.4842 66.0424 71.3977 67.11 70.1431 67.5549Z" fill="#00D8FF"/>
</g>
</svg>
