<svg width="25" height="21" viewBox="0 0 25 21" fill="none" xmlns="http://www.w3.org/2000/svg">
<path d="M25 2.40508C24.0638 2.8198 23.0709 3.09202 22.0541 3.2127C23.1132 2.57793 23.9264 1.57275 24.3093 0.375098C23.3025 0.972544 22.201 1.39348 21.0523 1.61973C20.1167 0.622949 18.7838 0 17.3085 0C14.4759 0 12.1793 2.29648 12.1793 5.12891C12.1793 5.53096 12.2247 5.92236 12.3121 6.29785C8.04941 6.08389 4.27012 4.04199 1.74033 0.938867C1.29893 1.69639 1.046 2.57754 1.046 3.51738C1.046 5.29688 1.95156 6.8667 3.32773 7.78652C2.51323 7.76101 1.71665 7.54103 1.00449 7.14492C1.0042 7.16641 1.0042 7.18789 1.0042 7.20947C1.0042 9.69453 2.77217 11.7676 5.11846 12.2388C4.36317 12.4442 3.57093 12.4742 2.80225 12.3267C3.45488 14.3644 5.34912 15.8472 7.59346 15.8887C5.83809 17.2643 3.62646 18.0843 1.22354 18.0843C0.809473 18.0843 0.40127 18.06 0 18.0126C2.26982 19.4679 4.96582 20.317 7.8623 20.317C17.2966 20.317 22.4555 12.5015 22.4555 5.72373C22.4555 5.50127 22.4506 5.28008 22.4406 5.06016C23.4448 4.33426 24.3114 3.43517 25 2.40508Z" fill="#55ACEE"/>
</svg>

